<svg xmlns="http://www.w3.org/2000/svg" viewBox="0 0 409 273"><path fill="#000" fill-rule="evenodd" d="M308,266C308,266 308,264 308,259C309,251 309,249 307,249C303,249 306,241 310,240C313,240 314,242 314,249C314,259 311,269 308,266ZM279,265C278,264 278,261 280,258C281,256 281,256 280,255C277,251 277,247 281,244C286,238 294,237 298,241C301,243 299,246 292,252C288,255 287,255 290,257C294,260 294,263 291,265C288,266 281,266 279,265ZM259,265C258,264 258,261 259,259C260,255 260,255 259,255C251,255 253,243 261,238C271,234 277,243 269,252C266,256 265,257 263,261C262,264 260,265 259,265C259,265 259,265 259,265ZM136,262C133,260 133,257 137,250L139,245L136,245C133,245 133,245 132,251C132,255 132,256 130,256C130,256 129,255 128,249C127,240 128,240 134,240C138,240 139,240 141,240C147,238 148,240 145,245C142,249 141,251 141,257C142,261 142,262 141,262C140,264 138,264 136,262ZM241,263C241,262 241,259 241,254C242,248 241,246 240,246C238,246 237,244 239,242C240,238 244,236 246,238C249,240 247,257 244,262C243,263 242,264 241,263ZM288,261C288,261 287,259 286,259C285,259 284,261 284,261C285,263 287,262 288,261ZM189,261C188,260 188,260 188,254C188,248 188,248 185,248C180,247 180,243 184,242C186,242 198,241 200,242C202,242 201,244 198,245C194,246 193,248 193,255C192,261 191,263 189,261ZM206,260C201,258 200,252 203,247C209,241 219,244 219,252C218,259 212,263 206,260ZM155,258C149,256 148,247 152,243C160,237 169,250 162,257C161,259 157,259 155,258ZM107,256C103,254 105,248 110,243C114,240 120,238 123,240C124,241 124,241 122,244C121,246 121,250 122,255C122,257 122,257 120,257C119,257 119,257 117,256C116,255 114,255 112,256C110,257 109,257 107,256ZM212,255C214,253 213,248 210,248C209,248 209,248 208,249C207,253 210,257 212,255ZM159,251C161,250 159,246 157,246C155,246 154,249 156,251C157,252 158,252 159,251ZM286,251C287,250 289,248 289,247C289,245 286,247 285,249C283,251 284,252 286,251ZM114,249C116,247 117,244 115,244C113,244 110,248 111,250C111,251 112,250 114,249ZM264,249C266,247 265,245 262,245C260,245 258,248 260,249C261,251 263,251 264,249ZM156,237C156,236 157,234 157,233C159,231 159,231 161,231C163,231 164,232 164,233C164,234 158,239 157,239C156,239 156,239 156,237ZM157,212C153,208 148,164 151,157C153,153 158,149 165,147C169,146 178,146 181,147C194,151 190,165 175,174C165,179 163,184 161,199C160,208 160,210 159,212C158,213 158,213 157,212ZM253,201C252,200 252,199 252,195C252,191 252,191 250,191C237,189 232,183 235,172C238,161 246,153 257,151C260,150 260,150 262,146C263,142 265,139 267,137C274,131 277,136 274,146C272,152 272,151 276,152C286,155 291,160 291,166C292,178 280,188 262,191C258,191 258,191 258,196C258,199 258,200 257,201C256,202 254,202 253,201ZM31,198C17,195 8,183 8,164C8,135 21,119 41,122C55,125 64,141 64,161C64,186 50,202 31,198ZM121,193C120,190 119,178 120,156C120,135 121,136 110,139C96,141 92,139 96,131C99,125 100,125 120,124C126,123 137,123 143,122C157,122 158,122 158,125C158,128 156,130 146,130C135,131 133,133 131,145C129,164 126,181 125,186C124,193 122,195 121,193ZM341,191C340,190 338,189 333,184C331,182 329,180 329,180C329,180 326,181 324,183C314,188 313,188 304,176C301,172 299,169 299,169C297,165 301,161 305,163C306,164 307,166 309,171C312,181 315,184 318,181C320,180 320,178 324,168C326,160 328,158 330,158C332,158 334,160 337,171C340,179 342,182 345,182C348,181 348,181 348,163C347,146 347,145 349,143C351,141 354,142 355,145C356,149 356,169 355,175C352,188 347,194 341,191ZM380,190C377,188 376,186 368,167C362,153 361,151 361,148C361,143 367,138 371,141C373,142 373,143 377,157C381,176 381,177 383,177C386,177 386,177 391,160C395,145 395,145 397,143C400,141 401,141 402,143C403,145 403,146 393,172C392,176 390,181 389,183C387,190 384,192 380,190ZM214,188C207,187 203,182 200,174C195,162 193,154 194,150C196,145 204,143 208,147C210,149 210,149 210,160C210,173 211,175 213,178C216,181 220,181 223,178C226,175 226,173 227,162C228,157 228,151 228,150C229,146 233,143 233,146C234,148 231,176 230,179C228,186 221,190 214,188ZM43,183C49,180 52,172 52,158C52,146 51,140 46,135C39,127 31,128 24,137C18,145 18,163 23,174C27,182 35,186 43,183ZM252,181C253,181 253,180 253,179C254,178 254,176 254,174C255,171 256,164 257,160C258,157 257,156 254,156C245,158 238,169 242,178C244,182 249,183 252,181ZM264,180C274,177 281,167 278,161C276,157 271,155 268,157C264,159 258,179 260,180C261,181 262,181 264,180ZM171,171C176,169 177,165 175,159C173,155 170,154 165,155C161,157 159,160 159,164C159,171 163,173 171,171ZM214,136C214,136 215,133 215,131C216,128 217,124 218,123C219,115 222,112 227,114C231,115 231,117 223,126C217,134 214,138 214,136ZM372,112C370,111 371,108 372,97C374,85 374,86 376,84C378,82 382,83 382,85C382,86 382,88 381,90C376,105 376,106 377,106C378,107 380,106 386,100C393,94 393,93 395,93C397,93 398,94 396,96C396,97 383,107 377,112C375,114 373,114 372,112ZM48,108C46,107 45,107 44,106C44,106 43,102 42,98C34,58 33,60 48,70C60,78 59,78 59,63C59,51 59,50 61,50C62,50 65,53 71,60C85,78 87,80 87,81C87,82 85,82 81,77C73,69 69,65 68,64C68,63 66,62 65,62C64,63 64,65 65,75C67,87 67,88 66,89C65,92 63,91 59,87C58,85 55,82 53,80C48,75 46,73 45,75C44,76 45,77 50,91C55,105 55,106 53,107C52,108 49,108 48,108ZM354,99C347,97 343,87 345,81C349,72 362,71 367,79C373,90 365,102 354,99ZM361,91C364,89 365,83 363,80C358,74 349,78 350,86C350,91 357,94 361,91ZM335,83C335,83 336,80 336,77C337,74 338,69 339,67C339,62 340,62 343,61C347,61 348,62 346,67C343,75 335,87 335,83ZM124,83C122,82 123,78 125,74C128,68 128,68 121,68C115,67 114,67 113,62C111,55 113,47 118,39C119,35 119,35 115,36C107,39 103,37 105,32C106,29 107,29 111,29C116,30 119,29 124,26C129,24 133,23 132,25C132,26 132,27 131,27C124,32 119,43 119,53C119,61 123,63 133,59C142,56 142,57 134,69C131,72 128,79 128,81C128,83 126,84 124,83ZM320,80C315,78 309,73 309,70C309,68 313,65 318,64C319,64 319,64 317,62C315,59 315,57 315,55C318,51 330,50 334,53C337,57 334,59 327,58C320,57 318,60 323,64C326,66 326,67 322,67C317,67 314,69 315,71C317,75 322,76 326,74C329,72 331,76 328,79C326,81 324,81 320,80ZM90,76C87,74 87,71 91,66C92,63 92,63 90,63C88,63 85,61 84,60C82,54 94,43 99,46C101,48 99,51 96,53C89,58 89,60 95,60C100,60 100,61 96,64C93,66 92,70 94,71C98,73 103,70 105,66C106,63 109,65 109,68C109,73 104,76 96,76C93,76 91,76 90,76ZM299,71C298,70 298,67 300,61C302,52 301,48 297,45C293,42 292,44 290,56C289,60 289,61 288,62C285,65 281,62 282,58C282,57 283,55 285,52C291,35 294,33 298,40C300,44 301,45 303,45C304,44 306,38 306,34C306,28 305,27 298,25C293,23 291,21 293,18C295,15 303,16 307,20C313,26 313,32 309,50C305,63 302,71 301,71C301,71 300,71 300,71C299,71 299,71 299,71ZM234,61C230,58 230,55 235,46C239,39 240,34 239,33C239,33 233,31 231,32C227,32 225,37 225,47C225,51 224,52 223,51C222,49 222,46 221,36C221,27 221,26 230,28C236,28 240,28 245,27C252,25 252,27 247,33C242,37 240,42 239,55C238,62 237,64 234,61ZM270,61C269,60 268,59 266,56C264,52 264,52 260,53C253,55 252,54 249,46C246,39 246,37 250,37C251,37 252,39 252,44C253,53 256,54 261,45C267,36 269,36 270,46C270,53 270,53 272,55C274,57 275,56 277,44C279,34 280,32 283,32C285,32 285,36 281,48C279,57 273,63 270,61ZM145,59C143,58 143,54 146,49C147,47 147,46 146,46C138,46 137,39 144,32C149,28 155,27 155,31C155,33 154,35 150,37C144,41 144,44 151,44C155,44 155,44 152,47C147,51 147,55 152,55C155,55 158,53 160,49C161,47 162,47 163,48C166,51 164,56 160,58C155,60 148,60 145,59ZM346,55C346,55 346,54 347,52C348,51 350,49 351,48C352,46 353,45 355,46C359,48 357,49 349,54C347,55 346,55 346,55ZM172,55C164,52 167,34 175,32C177,31 178,32 176,34C173,39 173,43 176,44C179,46 181,45 182,41C184,37 183,32 178,28C170,21 172,14 181,8C187,5 193,6 193,11C193,13 193,12 186,15C177,18 176,20 181,25C188,32 190,39 186,46C183,52 177,56 172,55ZM200,51C189,47 187,32 197,27C199,26 206,25 208,27C212,29 215,33 215,39C215,48 208,54 200,51ZM208,43C211,39 211,33 207,30C201,27 194,32 195,38C196,44 204,47 208,43Z"/></svg>